<svg width="16" height="16" viewBox="0 0 16 16" fill="none" xmlns="http://www.w3.org/2000/svg">
<path fill-rule="evenodd" clip-rule="evenodd" d="M6.66574 4H7.99868V1.33333H6.66574V4ZM1.33398 8H3.99986V6.66667H1.33398V8ZM4.50478 5.44767L2.62001 3.56167L3.56239 2.619L5.44717 4.505L4.50478 5.44767ZM3.56233 12.0473L2.61994 11.1046L4.50472 9.2186L5.4471 10.1613L3.56233 12.0473ZM10.16 5.44767L9.21759 4.505L11.1024 2.619L12.0448 3.56167L10.16 5.44767ZM8.46665 14.5L5.94456 5.94147L14.5 8.46667L12.54 10.4267L14.4067 12.2867L12.2867 14.4067L10.4267 12.54L8.46665 14.5Z" fill="#E0E0E0"/>
</svg>
